<svg width="136" height="72" xmlns="http://www.w3.org/2000/svg">

 <g>
  <title>background</title>
  <rect fill="none" id="canvas_background" height="74" width="138" y="-1" x="-1"/>
 </g>
 <g>
  <title>Layer 1</title>
  <g id="svg_6">
   <line id="svg_7" y2="47" x2="97" y1="25" x1="119" stroke-miterlimit="10" stroke-linejoin="round" stroke-linecap="round" stroke-width="2" stroke="#343434" fill="none"/>
   <line id="svg_8" y2="25" x2="97" y1="47" x1="119" stroke-miterlimit="10" stroke-linejoin="round" stroke-linecap="round" stroke-width="2" stroke="#343434" fill="none"/>
  </g>
  <metadata transform="matrix(0.0005760000100135804,0,0,0.0005760000100135804,0,0) ">Svg Vector Icons : http://www.onlinewebfonts.com/icon</metadata>
  <g stroke="null" id="svg_15">
   <g stroke="null" transform="matrix(0.03922529932344805,0,0,0.03913319513866159,-4836.1624014964145,-2399.324941812112) " id="svg_12">
    <path stroke-width="2" stroke="null" id="svg_13" d="m124637.396825,62050.873883c-21.7,45.7 -117.1,266.2 -130.1,286.6c-1.5,2.4 -2.9,4.8 -4.2,7.1c-12.7,21.7 -26.1,38.4 -72.3,38.4l-440.9,0c9.2,28.1 28.5,62.7 68.5,62.7l381.6,0c11.3,0 20.4,9.2 20.4,20.4c0,11.3 -9.1,20.4 -20.4,20.4l-381.6,0c-56.6,0 -98,-44.3 -113.4,-112.3c-8.5,-37.5 -111.8,-383.1 -119.2,-410.2c-7.9,-17.2 -26.4,-29.6 -44.3,-29.6l-94,0c-11.3,0 -20.4,-9.2 -20.4,-20.4s9.2,-20.4 20.4,-20.4l94,0c35,0 68.1,1.9 82.4,35.1c0.4,0.9 0.7,1.8 0.9,2.7c4.1,14.8 89.7,318.5 114.1,410.7l451.8,0c26.5,0 29.1,-4.6 37,-18.1c1.6,-2.7 3.2,-5.5 5.1,-8.4c12.1,-19 106.9,-238.2 127.1,-280.8c8.4,-22 6.9,-34 4.6,-37.4c-1.5,-2.2 -6.4,-3.5 -13.1,-3.5c-44.2,0.7 -605.4,0 -624.9,0c-11.3,0 -20.4,-9.2 -20.4,-20.5c0,-11.3 9.1,-20.4 20.4,-20.4l0,0c4.8,0 580.3,0.7 624.5,0c26.9,0 40.4,11.5 47.1,21.2c12.2,17.8 12,43.6 -0.7,76.7zm-589.9,455.8c52.6,0 95.5,42.8 95.5,95.5s-42.8,95.4 -95.5,95.4c-52.6,0 -95.4,-42.8 -95.4,-95.5s42.8,-95.4 95.4,-95.4zm0,151.7c31,0 56.2,-25.2 56.2,-56.2c0,-31 -25.2,-56.2 -56.2,-56.2c-31,0 -56.2,25.2 -56.2,56.2c0.1,31 25.3,56.2 56.2,56.2z"/>
    <path stroke-width="2" stroke="null" id="svg_14" d="m124435.796825,62506.673883c52.6,0 95.5,42.8 95.5,95.5s-42.8,95.4 -95.5,95.4s-95.4,-42.8 -95.4,-95.5s42.8,-95.4 95.4,-95.4zm0,151.7c31,0 56.2,-25.2 56.2,-56.2c0,-31 -25.2,-56.2 -56.2,-56.2c-31,0 -56.2,25.2 -56.2,56.2c0,31 25.3,56.2 56.2,56.2z"/>
   </g>
  </g>
 </g>
</svg>